<svg xmlns="http://www.w3.org/2000/svg" viewBox="0 0 512 512">
  <circle cx="256" cy="256" r="256" fill="#003399"/>

  <defs>
    <path id="eu-star" fill="#FFCC00" d="M0,-24 L6.5,-8.5 L23,-8.5 L9.5,1.5 L14.5,17.5 L0,7.5 L-14.5,17.5 L-9.5,1.5 L-23,-8.5 L-6.5,-8.5 Z"/>
  </defs>

  <g transform="translate(256, 256)">
    <use href="#eu-star" transform="rotate(0) translate(0, -180)"/>
    <use href="#eu-star" transform="rotate(30) translate(0, -180)"/>
    <use href="#eu-star" transform="rotate(60) translate(0, -180)"/>
    <use href="#eu-star" transform="rotate(90) translate(0, -180)"/>
    <use href="#eu-star" transform="rotate(120) translate(0, -180)"/>
    <use href="#eu-star" transform="rotate(150) translate(0, -180)"/>
    <use href="#eu-star" transform="rotate(180) translate(0, -180)"/>
    <use href="#eu-star" transform="rotate(210) translate(0, -180)"/>
    <use href="#eu-star" transform="rotate(240) translate(0, -180)"/>
    <use href="#eu-star" transform="rotate(270) translate(0, -180)"/>
    <use href="#eu-star" transform="rotate(300) translate(0, -180)"/>
    <use href="#eu-star" transform="rotate(330) translate(0, -180)"/>
  </g>

  <g transform="translate(256, 130) scale(0.9)">
    <path fill="#FFFFFF" d="M0,0 C-70,0 -120,50 -120,110 C-120,180 0,300 0,300 C0,300 120,180 120,110 C120,50 70,0 0,0 Z"/>
    <circle cx="0" cy="110" r="85" fill="#0099FF"/>
    
    <g transform="translate(0, 115)" fill="#FFFFFF">
      <rect x="-40" y="-60" width="80" height="40" rx="5"/>
      <path d="M-40,-15 L40,-15 C40,35 15,55 0,55 C-15,55 -40,35 -40,-15 Z"/>
      <rect x="-45" y="-15" width="90" height="10" rx="5"/>
    </g>
  </g>

  <g transform="translate(340, 220) rotate(-10) scale(0.6)">
    <path fill="#F0F0F0" d="M40,0 L100,0 L100,120 L80,140 L40,120 Z"/>
    <path fill="#FFFFFF" d="M100,120 L100,160 L60,160 L40,120 Z" opacity="0.8"/> 
    <rect x="0" y="0" width="60" height="120" rx="10" fill="#FFFFFF" stroke="#DDD" stroke-width="4"/>
    <ellipse cx="30" cy="0" rx="30" ry="10" fill="#EEE" stroke="#DDD" stroke-width="2"/>
    <ellipse cx="30" cy="0" rx="10" ry="3" fill="#333"/>
  </g>

  <text x="256" y="360" font-family="Arial, sans-serif" font-weight="bold" font-size="70" text-anchor="middle" fill="#FFFFFF" stroke="#003399" stroke-width="4">EuroLoo</text>
</svg>